<svg width="1200" height="675" viewBox="0 0 1200 675" fill="none" xmlns="http://www.w3.org/2000/svg">
  <defs>
    <linearGradient id="bg" x1="0" y1="0" x2="1200" y2="675" gradientUnits="userSpaceOnUse">
      <stop offset="0" stop-color="#0B1020"/>
      <stop offset="1" stop-color="#101B35"/>
    </linearGradient>
    <linearGradient id="glowBlue" x1="170" y1="90" x2="620" y2="360" gradientUnits="userSpaceOnUse">
      <stop offset="0" stop-color="#5B8DEF" stop-opacity="0.35"/>
      <stop offset="1" stop-color="#5B8DEF" stop-opacity="0"/>
    </linearGradient>
    <linearGradient id="glowGreen" x1="660" y1="210" x2="1090" y2="560" gradientUnits="userSpaceOnUse">
      <stop offset="0" stop-color="#5FBF8A" stop-opacity="0.35"/>
      <stop offset="1" stop-color="#5FBF8A" stop-opacity="0"/>
    </linearGradient>
    <filter id="shadow" x="-50%" y="-50%" width="200%" height="200%">
      <feDropShadow dx="0" dy="16" stdDeviation="20" flood-color="#02040A" flood-opacity="0.38"/>
    </filter>
  </defs>

  <rect width="1200" height="675" rx="40" fill="url(#bg)"/>
  <circle cx="250" cy="120" r="220" fill="url(#glowBlue)"/>
  <circle cx="980" cy="570" r="260" fill="url(#glowGreen)"/>
  <path d="M90 575C255 505 325 535 455 575C585 615 705 620 840 575C975 530 1040 520 1110 545" stroke="#4A5B82" stroke-opacity="0.25" stroke-width="2"/>
  <path d="M120 150H1080" stroke="#203253" stroke-width="2" stroke-opacity="0.65"/>

  <text x="80" y="92" fill="#F2F6FF" font-family="Inter, Segoe UI, Arial, sans-serif" font-size="34" font-weight="700">Idempotent API retry flow</text>
  <text x="80" y="126" fill="#A6B7D8" font-family="Inter, Segoe UI, Arial, sans-serif" font-size="18">A safe retry returns the same result instead of creating duplicates.</text>

  <g filter="url(#shadow)">
    <rect x="70" y="210" width="220" height="210" rx="28" fill="#111B33" stroke="#2A3C61"/>
    <rect x="350" y="210" width="220" height="210" rx="28" fill="#111B33" stroke="#2A3C61"/>
    <rect x="630" y="210" width="220" height="210" rx="28" fill="#111B33" stroke="#2A3C61"/>
    <rect x="910" y="210" width="220" height="210" rx="28" fill="#111B33" stroke="#2A3C61"/>
  </g>

  <circle cx="102" cy="242" r="18" fill="#5B8DEF"/>
  <text x="96" y="248" fill="#08101F" font-family="Inter, Segoe UI, Arial, sans-serif" font-size="18" font-weight="800">1</text>
  <text x="132" y="249" fill="#F2F6FF" font-family="Inter, Segoe UI, Arial, sans-serif" font-size="24" font-weight="700">Client request</text>
  <rect x="108" y="286" width="136" height="46" rx="14" fill="#162443" stroke="#2D446B"/>
  <text x="125" y="315" fill="#DDE8FF" font-family="Inter, Segoe UI, Arial, sans-serif" font-size="20" font-weight="600">POST /payments</text>
  <rect x="108" y="346" width="176" height="34" rx="12" fill="#0E2647" stroke="#31527D"/>
  <text x="123" y="369" fill="#9EC2FF" font-family="Inter, Segoe UI, Arial, sans-serif" font-size="16" font-weight="600">Idempotency-Key</text>

  <circle cx="382" cy="242" r="18" fill="#5FBF8A"/>
  <text x="376" y="248" fill="#06111A" font-family="Inter, Segoe UI, Arial, sans-serif" font-size="18" font-weight="800">2</text>
  <text x="412" y="249" fill="#F2F6FF" font-family="Inter, Segoe UI, Arial, sans-serif" font-size="24" font-weight="700">Validate + store</text>
  <rect x="388" y="287" width="104" height="36" rx="12" fill="#132840" stroke="#2C4969"/>
  <text x="409" y="311" fill="#DDE8FF" font-family="Inter, Segoe UI, Arial, sans-serif" font-size="16" font-weight="600">validate</text>
  <rect x="388" y="334" width="150" height="44" rx="14" fill="#103626" stroke="#2A5B44"/>
  <text x="404" y="362" fill="#C9F7DE" font-family="Inter, Segoe UI, Arial, sans-serif" font-size="18" font-weight="600">idempotency store</text>

  <circle cx="662" cy="242" r="18" fill="#F0B84C"/>
  <text x="656" y="248" fill="#1D1606" font-family="Inter, Segoe UI, Arial, sans-serif" font-size="18" font-weight="800">3</text>
  <text x="692" y="249" fill="#F2F6FF" font-family="Inter, Segoe UI, Arial, sans-serif" font-size="24" font-weight="700">First attempt</text>
  <rect x="668" y="287" width="164" height="40" rx="13" fill="#2A2430" stroke="#5D5067"/>
  <text x="688" y="313" fill="#F4E6FF" font-family="Inter, Segoe UI, Arial, sans-serif" font-size="17" font-weight="600">creates resource</text>
  <rect x="668" y="338" width="138" height="40" rx="13" fill="#0F2E25" stroke="#2A5B44"/>
  <text x="690" y="364" fill="#C9F7DE" font-family="Inter, Segoe UI, Arial, sans-serif" font-size="17" font-weight="600">store result</text>

  <circle cx="942" cy="242" r="18" fill="#5FBF8A"/>
  <text x="936" y="248" fill="#06111A" font-family="Inter, Segoe UI, Arial, sans-serif" font-size="18" font-weight="800">4</text>
  <text x="972" y="249" fill="#F2F6FF" font-family="Inter, Segoe UI, Arial, sans-serif" font-size="24" font-weight="700">Retry returns same</text>
  <rect x="948" y="287" width="142" height="40" rx="13" fill="#0E2647" stroke="#31527D"/>
  <text x="968" y="313" fill="#DDE8FF" font-family="Inter, Segoe UI, Arial, sans-serif" font-size="17" font-weight="600">retry arrives</text>
  <rect x="948" y="338" width="132" height="40" rx="13" fill="#103626" stroke="#2A5B44"/>
  <text x="972" y="364" fill="#C9F7DE" font-family="Inter, Segoe UI, Arial, sans-serif" font-size="17" font-weight="600">same result</text>

  <path d="M292 315H332" stroke="#8FB3FF" stroke-width="6" stroke-linecap="round"/>
  <path d="M332 315L320 307M332 315L320 323" stroke="#8FB3FF" stroke-width="6" stroke-linecap="round" stroke-linejoin="round"/>
  <path d="M572 315H612" stroke="#8BF0C2" stroke-width="6" stroke-linecap="round"/>
  <path d="M612 315L600 307M612 315L600 323" stroke="#8BF0C2" stroke-width="6" stroke-linecap="round" stroke-linejoin="round"/>
  <path d="M852 315H892" stroke="#8BF0C2" stroke-width="6" stroke-linecap="round"/>
  <path d="M892 315L880 307M892 315L880 323" stroke="#8BF0C2" stroke-width="6" stroke-linecap="round" stroke-linejoin="round"/>

  <rect x="80" y="454" width="1040" height="94" rx="24" fill="#0E162B" stroke="#223554"/>
  <text x="108" y="490" fill="#F2F6FF" font-family="Inter, Segoe UI, Arial, sans-serif" font-size="22" font-weight="700">Idea:</text>
  <text x="176" y="490" fill="#C9D7F3" font-family="Inter, Segoe UI, Arial, sans-serif" font-size="20">a retry should be harmless when the request carries the same idempotency key.</text>
  <text x="108" y="523" fill="#8FA4C7" font-family="Inter, Segoe UI, Arial, sans-serif" font-size="16">Flat vector illustration · dark technical style · clean boxes · no clutter</text>
</svg>
