<svg width="1200" height="630" viewBox="0 0 1200 630" fill="none" xmlns="http://www.w3.org/2000/svg">
  <rect width="1200" height="630" fill="#090D16"/>
  <rect width="1200" height="630" fill="url(#grid)" opacity="0.18"/>
  <circle cx="182" cy="108" r="228" fill="#2563EB" fill-opacity="0.20"/>
  <circle cx="1006" cy="124" r="184" fill="#10B981" fill-opacity="0.12"/>
  <circle cx="920" cy="548" r="252" fill="#2563EB" fill-opacity="0.10"/>
  <rect x="64" y="56" width="1072" height="518" rx="36" fill="#0F1723" stroke="#273449"/>
  <rect x="112" y="118" width="132" height="132" rx="28" fill="#122340" stroke="#3B82F6" stroke-opacity="0.45"/>
  <text x="145" y="211" fill="#F8FBFF" font-family="Segoe UI, Arial, sans-serif" font-size="74" font-weight="800">JF</text>
  <text x="112" y="326" fill="#8FA4BE" font-family="Segoe UI, Arial, sans-serif" font-size="20" letter-spacing="3.2">JOSE MIGUEL FERNANDEZ</text>
  <text x="112" y="392" fill="#F8FBFF" font-family="Segoe UI, Arial, sans-serif" font-size="58" font-weight="700">Freelance Web Developer in Granada</text>
  <text x="112" y="446" fill="#A8C7FF" font-family="Segoe UI, Arial, sans-serif" font-size="26" font-weight="600">Web · Automation · APIs · Java &amp; Spring Boot</text>
  <text x="112" y="504" fill="#93A4BA" font-family="Segoe UI, Arial, sans-serif" font-size="24">Practical software for businesses, products and internal teams.</text>
  <rect x="112" y="534" width="292" height="18" rx="9" fill="#122340"/>
  <rect x="112" y="534" width="164" height="18" rx="9" fill="#7FB0FF"/>
  <rect x="432" y="534" width="204" height="18" rx="9" fill="#122340"/>
  <rect x="432" y="534" width="132" height="18" rx="9" fill="#10B981"/>
  <rect x="664" y="534" width="248" height="18" rx="9" fill="#122340"/>
  <rect x="664" y="534" width="182" height="18" rx="9" fill="#F59E0B"/>
  <defs>
    <pattern id="grid" width="48" height="48" patternUnits="userSpaceOnUse">
      <path d="M48 0H0V48" stroke="#8FA4BE" stroke-opacity="0.35"/>
    </pattern>
  </defs>
</svg>
